<svg width="32" height="32" xmlns="http://www.w3.org/2000/svg">
  <rect width="100%" height="100%" fill="#1a1a1a"/>
  
  <!-- Cat body -->
  <rect x="8" y="12" width="16" height="12" fill="#f0f0f0"/>
  <rect x="6" y="14" width="2" height="8" fill="#f0f0f0"/>
  <rect x="24" y="14" width="2" height="8" fill="#f0f0f0"/>
  
  <!-- Cat head -->
  <rect x="10" y="6" width="12" height="10" fill="#f0f0f0"/>
  <polygon points="10,6 6,2 10,2" fill="#f0f0f0"/>
  <polygon points="22,6 26,2 22,2" fill="#f0f0f0"/>
  
  <!-- Cat face -->
  <rect x="13" y="9" width="2" height="2" fill="#000"/>
  <rect x="17" y="9" width="2" height="2" fill="#000"/>
  <rect x="14" y="12" width="4" height="1" fill="#ff9999"/>
  
  <!-- Blockchain elements -->
  <rect x="4" y="24" width="6" height="6" fill="#4caf50" stroke="#fff" stroke-width="1"/>
  <rect x="13" y="24" width="6" height="6" fill="#2196f3" stroke="#fff" stroke-width="1"/>
  <rect x="22" y="24" width="6" height="6" fill="#ffc107" stroke="#fff" stroke-width="1"/>
  
  <!-- Connecting lines -->
  <line x1="10" y1="27" x2="13" y2="27" stroke="#fff" stroke-width="1"/>
  <line x1="19" y1="27" x2="22" y2="27" stroke="#fff" stroke-width="1"/>
</svg>